<?xml version="1.0" standalone="no"?>
<!DOCTYPE svg PUBLIC "-//W3C//DTD SVG 20010904//EN"
 "http://www.w3.org/TR/2001/REC-SVG-20010904/DTD/svg10.dtd">
<svg version="1.0" xmlns="http://www.w3.org/2000/svg"
 width="1024.000000pt" height="1024.000000pt" viewBox="0 0 1024.000000 1024.000000"
 preserveAspectRatio="xMidYMid meet">

<g transform="translate(0.000000,1024.000000) scale(0.100000,-0.100000)"
fill="#000000" stroke="none">
<path d="M0 5120 l0 -5120 5120 0 5120 0 0 5120 0 5120 -5120 0 -5120 0 0
-5120z m5385 3000 c653 -56 1243 -303 1740 -730 106 -91 306 -296 386 -395
371 -460 592 -995 655 -1586 21 -203 15 -556 -14 -744 -79 -512 -281 -1003
-571 -1388 -509 -677 -1237 -1101 -2086 -1213 -162 -21 -514 -24 -670 -5 -613
73 -1145 296 -1625 679 -130 104 -378 355 -476 482 -331 426 -535 895 -616
1415 -30 194 -33 690 -5 890 40 279 142 614 266 870 155 321 327 563 584 824
416 421 934 707 1512 835 307 67 630 90 920 66z"/>
<path d="M4780 7934 c-461 -55 -899 -220 -1280 -482 -672 -462 -1097 -1142
-1222 -1952 -29 -191 -31 -577 -5 -770 93 -665 375 -1226 848 -1685 668 -648
1592 -937 2504 -784 882 148 1665 730 2068 1537 104 210 168 380 223 598 72
285 96 534 82 851 -21 511 -182 991 -479 1433 -112 166 -195 267 -349 421
-480 483 -1086 772 -1759 839 -142 14 -492 11 -631 -6z m1198 -730 c451 -168
874 -524 1147 -964 146 -236 267 -556 310 -818 12 -75 -30 -132 -98 -132 -49
0 -65 27 -91 155 -61 299 -159 542 -313 775 -242 367 -602 658 -1008 815 -103
40 -135 68 -135 117 0 33 47 88 75 88 9 0 60 -16 113 -36z m-760 -415 c248
-26 509 -114 695 -233 67 -43 78 -56 84 -106 l6 -41 -201 -202 c-222 -223
-232 -238 -193 -300 12 -19 118 -127 236 -241 200 -193 216 -206 251 -206 35
0 49 11 213 174 192 190 211 202 270 170 50 -27 74 -67 119 -208 66 -201 76
-270 76 -521 0 -245 -10 -323 -70 -522 -90 -299 -238 -539 -471 -764 -233
-224 -503 -365 -838 -435 -117 -25 -151 -28 -335 -28 -175 -1 -222 3 -317 22
-298 60 -536 160 -745 314 -112 81 -298 272 -378 386 -380 541 -434 1242 -139
1812 225 435 638 758 1127 881 203 51 422 69 610 48z"/>
</g>
</svg>
